<svg xmlns="http://www.w3.org/2000/svg" xmlns:xlink="http://www.w3.org/1999/xlink" width="150" zoomAndPan="magnify" viewBox="0 0 112.5 37.5" height="50" preserveAspectRatio="xMidYMid meet" version="1.0"><defs><g/></defs><g fill="#000000" fill-opacity="1"><g transform="translate(4.230717, 27.633393)"><g><path d="M 6.734375 -17.09375 C 7.679688 -17.09375 8.578125 -16.945312 9.421875 -16.65625 C 10.273438 -16.375 11.054688 -15.96875 11.765625 -15.4375 C 12.472656 -14.914062 13.085938 -14.300781 13.609375 -13.59375 C 14.140625 -12.882812 14.546875 -12.101562 14.828125 -11.25 C 15.117188 -10.40625 15.265625 -9.515625 15.265625 -8.578125 C 15.265625 -7.628906 15.117188 -6.722656 14.828125 -5.859375 C 14.535156 -5.003906 14.128906 -4.21875 13.609375 -3.5 C 13.085938 -2.789062 12.46875 -2.171875 11.75 -1.640625 C 11.03125 -1.117188 10.242188 -0.710938 9.390625 -0.421875 C 8.535156 -0.140625 7.632812 0 6.6875 0 L 0.328125 0 L 0.328125 -17.09375 Z M 6.734375 -2.03125 C 7.453125 -2.03125 8.132812 -2.140625 8.78125 -2.359375 C 9.425781 -2.578125 10.019531 -2.882812 10.5625 -3.28125 C 11.101562 -3.6875 11.570312 -4.160156 11.96875 -4.703125 C 12.363281 -5.253906 12.671875 -5.859375 12.890625 -6.515625 C 13.109375 -7.171875 13.21875 -7.859375 13.21875 -8.578125 C 13.21875 -9.285156 13.109375 -9.960938 12.890625 -10.609375 C 12.671875 -11.265625 12.359375 -11.859375 11.953125 -12.390625 C 11.554688 -12.929688 11.085938 -13.398438 10.546875 -13.796875 C 10.003906 -14.203125 9.40625 -14.515625 8.75 -14.734375 C 8.101562 -14.953125 7.414062 -15.0625 6.6875 -15.0625 L 2.421875 -15.0625 L 2.421875 -2.03125 Z M 6.6875 -14.796875 C 7.550781 -14.796875 8.363281 -14.632812 9.125 -14.3125 C 9.882812 -13.988281 10.546875 -13.539062 11.109375 -12.96875 C 11.679688 -12.394531 12.128906 -11.734375 12.453125 -10.984375 C 12.785156 -10.234375 12.953125 -9.429688 12.953125 -8.578125 C 12.953125 -7.710938 12.785156 -6.898438 12.453125 -6.140625 C 12.128906 -5.378906 11.679688 -4.710938 11.109375 -4.140625 C 10.546875 -3.566406 9.882812 -3.113281 9.125 -2.78125 C 8.363281 -2.457031 7.550781 -2.296875 6.6875 -2.296875 L 2.640625 -2.296875 L 2.640625 -14.796875 Z M 6.734375 -4.3125 C 7.304688 -4.3125 7.84375 -4.421875 8.34375 -4.640625 C 8.851562 -4.867188 9.300781 -5.175781 9.6875 -5.5625 C 10.070312 -5.957031 10.367188 -6.410156 10.578125 -6.921875 C 10.796875 -7.429688 10.90625 -7.984375 10.90625 -8.578125 C 10.90625 -9.140625 10.796875 -9.671875 10.578125 -10.171875 C 10.367188 -10.679688 10.070312 -11.128906 9.6875 -11.515625 C 9.300781 -11.910156 8.851562 -12.21875 8.34375 -12.4375 C 7.84375 -12.664062 7.304688 -12.78125 6.734375 -12.78125 L 4.6875 -12.78125 L 4.6875 -4.3125 Z M 6.734375 -4.3125 "/></g></g></g><g fill="#000000" fill-opacity="1"><g transform="translate(20.172214, 27.633393)"><g><path d="M 0.578125 0 L 0.578125 -17.109375 L 2.71875 -17.109375 L 2.71875 0 Z M 2.96875 0 L 2.96875 -17.109375 L 5.078125 -17.109375 L 5.078125 0 Z M 2.96875 0 "/></g></g></g><g fill="#000000" fill-opacity="1"><g transform="translate(26.31343, 27.633393)"><g><path d="M 6.734375 -17.09375 C 7.679688 -17.09375 8.578125 -16.945312 9.421875 -16.65625 C 10.273438 -16.375 11.054688 -15.96875 11.765625 -15.4375 C 12.472656 -14.914062 13.085938 -14.300781 13.609375 -13.59375 C 14.140625 -12.882812 14.546875 -12.101562 14.828125 -11.25 C 15.117188 -10.40625 15.265625 -9.515625 15.265625 -8.578125 C 15.265625 -7.628906 15.117188 -6.722656 14.828125 -5.859375 C 14.535156 -5.003906 14.128906 -4.21875 13.609375 -3.5 C 13.085938 -2.789062 12.46875 -2.171875 11.75 -1.640625 C 11.03125 -1.117188 10.242188 -0.710938 9.390625 -0.421875 C 8.535156 -0.140625 7.632812 0 6.6875 0 L 0.328125 0 L 0.328125 -17.09375 Z M 6.734375 -2.03125 C 7.453125 -2.03125 8.132812 -2.140625 8.78125 -2.359375 C 9.425781 -2.578125 10.019531 -2.882812 10.5625 -3.28125 C 11.101562 -3.6875 11.570312 -4.160156 11.96875 -4.703125 C 12.363281 -5.253906 12.671875 -5.859375 12.890625 -6.515625 C 13.109375 -7.171875 13.21875 -7.859375 13.21875 -8.578125 C 13.21875 -9.285156 13.109375 -9.960938 12.890625 -10.609375 C 12.671875 -11.265625 12.359375 -11.859375 11.953125 -12.390625 C 11.554688 -12.929688 11.085938 -13.398438 10.546875 -13.796875 C 10.003906 -14.203125 9.40625 -14.515625 8.75 -14.734375 C 8.101562 -14.953125 7.414062 -15.0625 6.6875 -15.0625 L 2.421875 -15.0625 L 2.421875 -2.03125 Z M 6.6875 -14.796875 C 7.550781 -14.796875 8.363281 -14.632812 9.125 -14.3125 C 9.882812 -13.988281 10.546875 -13.539062 11.109375 -12.96875 C 11.679688 -12.394531 12.128906 -11.734375 12.453125 -10.984375 C 12.785156 -10.234375 12.953125 -9.429688 12.953125 -8.578125 C 12.953125 -7.710938 12.785156 -6.898438 12.453125 -6.140625 C 12.128906 -5.378906 11.679688 -4.710938 11.109375 -4.140625 C 10.546875 -3.566406 9.882812 -3.113281 9.125 -2.78125 C 8.363281 -2.457031 7.550781 -2.296875 6.6875 -2.296875 L 2.640625 -2.296875 L 2.640625 -14.796875 Z M 6.734375 -4.3125 C 7.304688 -4.3125 7.84375 -4.421875 8.34375 -4.640625 C 8.851562 -4.867188 9.300781 -5.175781 9.6875 -5.5625 C 10.070312 -5.957031 10.367188 -6.410156 10.578125 -6.921875 C 10.796875 -7.429688 10.90625 -7.984375 10.90625 -8.578125 C 10.90625 -9.140625 10.796875 -9.671875 10.578125 -10.171875 C 10.367188 -10.679688 10.070312 -11.128906 9.6875 -11.515625 C 9.300781 -11.910156 8.851562 -12.21875 8.34375 -12.4375 C 7.84375 -12.664062 7.304688 -12.78125 6.734375 -12.78125 L 4.6875 -12.78125 L 4.6875 -4.3125 Z M 6.734375 -4.3125 "/></g></g></g><g fill="#000000" fill-opacity="1"><g transform="translate(42.254928, 27.633393)"><g><path d="M 0.578125 0 L 0.578125 -17.109375 L 2.71875 -17.109375 L 2.71875 0 Z M 2.96875 0 L 2.96875 -17.109375 L 5.078125 -17.109375 L 5.078125 0 Z M 2.96875 0 "/></g></g></g><g fill="#000000" fill-opacity="1"><g transform="translate(48.396143, 27.633393)"><g><path d="M 2.234375 0 L 0.25 0 L 0.25 -5.71875 C 0.25 -6.46875 0.378906 -7.175781 0.640625 -7.84375 C 0.898438 -8.507812 1.28125 -9.09375 1.78125 -9.59375 C 2.289062 -10.101562 2.90625 -10.5 3.625 -10.78125 C 4.34375 -11.070312 5.160156 -11.21875 6.078125 -11.21875 L 6.078125 -9.25 C 5.285156 -9.25 4.597656 -9.085938 4.015625 -8.765625 C 3.441406 -8.441406 3 -8.015625 2.6875 -7.484375 C 2.382812 -6.953125 2.234375 -6.363281 2.234375 -5.71875 Z M 4.484375 -5.6875 C 4.484375 -6.039062 4.609375 -6.347656 4.859375 -6.609375 C 5.109375 -6.867188 5.515625 -7 6.078125 -7 L 6.078125 -9.015625 C 5.347656 -9.015625 4.710938 -8.863281 4.171875 -8.5625 C 3.640625 -8.257812 3.222656 -7.859375 2.921875 -7.359375 C 2.628906 -6.859375 2.484375 -6.3125 2.484375 -5.71875 L 2.484375 0 L 4.484375 0 Z M 4.484375 -5.6875 "/></g></g></g><g fill="#000000" fill-opacity="1"><g transform="translate(55.06174, 27.633393)"><g><path d="M 5.890625 -11.359375 C 6.691406 -11.359375 7.441406 -11.207031 8.140625 -10.90625 C 8.835938 -10.601562 9.453125 -10.1875 9.984375 -9.65625 C 10.515625 -9.125 10.929688 -8.507812 11.234375 -7.8125 C 11.535156 -7.113281 11.6875 -6.363281 11.6875 -5.5625 C 11.6875 -4.78125 11.535156 -4.039062 11.234375 -3.34375 C 10.929688 -2.644531 10.515625 -2.03125 9.984375 -1.5 C 9.453125 -0.976562 8.835938 -0.5625 8.140625 -0.25 C 7.441406 0.0507812 6.691406 0.203125 5.890625 0.203125 C 5.097656 0.203125 4.351562 0.0507812 3.65625 -0.25 C 2.96875 -0.5625 2.359375 -0.976562 1.828125 -1.5 C 1.296875 -2.03125 0.878906 -2.644531 0.578125 -3.34375 C 0.285156 -4.039062 0.140625 -4.78125 0.140625 -5.5625 C 0.140625 -6.363281 0.285156 -7.113281 0.578125 -7.8125 C 0.878906 -8.507812 1.296875 -9.125 1.828125 -9.65625 C 2.359375 -10.1875 2.96875 -10.601562 3.65625 -10.90625 C 4.351562 -11.207031 5.097656 -11.359375 5.890625 -11.359375 Z M 5.890625 -1.90625 C 6.390625 -1.90625 6.863281 -2 7.3125 -2.1875 C 7.757812 -2.375 8.15625 -2.632812 8.5 -2.96875 C 8.84375 -3.3125 9.109375 -3.703125 9.296875 -4.140625 C 9.492188 -4.585938 9.59375 -5.0625 9.59375 -5.5625 C 9.59375 -6.070312 9.492188 -6.550781 9.296875 -7 C 9.109375 -7.445312 8.84375 -7.835938 8.5 -8.171875 C 8.15625 -8.515625 7.757812 -8.78125 7.3125 -8.96875 C 6.863281 -9.15625 6.390625 -9.25 5.890625 -9.25 C 5.390625 -9.25 4.914062 -9.15625 4.46875 -8.96875 C 4.03125 -8.78125 3.644531 -8.515625 3.3125 -8.171875 C 2.976562 -7.835938 2.710938 -7.445312 2.515625 -7 C 2.328125 -6.550781 2.234375 -6.070312 2.234375 -5.5625 C 2.234375 -5.0625 2.328125 -4.585938 2.515625 -4.140625 C 2.710938 -3.703125 2.976562 -3.3125 3.3125 -2.96875 C 3.644531 -2.632812 4.03125 -2.375 4.46875 -2.1875 C 4.914062 -2 5.390625 -1.90625 5.890625 -1.90625 Z M 5.890625 -8.96875 C 6.359375 -8.96875 6.796875 -8.875 7.203125 -8.6875 C 7.617188 -8.507812 7.984375 -8.265625 8.296875 -7.953125 C 8.617188 -7.648438 8.863281 -7.289062 9.03125 -6.875 C 9.207031 -6.46875 9.296875 -6.03125 9.296875 -5.5625 C 9.296875 -5.082031 9.207031 -4.640625 9.03125 -4.234375 C 8.863281 -3.828125 8.617188 -3.46875 8.296875 -3.15625 C 7.984375 -2.84375 7.617188 -2.597656 7.203125 -2.421875 C 6.796875 -2.253906 6.359375 -2.171875 5.890625 -2.171875 C 5.421875 -2.171875 4.984375 -2.253906 4.578125 -2.421875 C 4.171875 -2.597656 3.804688 -2.84375 3.484375 -3.15625 C 3.171875 -3.46875 2.925781 -3.828125 2.75 -4.234375 C 2.582031 -4.640625 2.5 -5.082031 2.5 -5.5625 C 2.5 -6.03125 2.582031 -6.46875 2.75 -6.875 C 2.925781 -7.289062 3.171875 -7.648438 3.484375 -7.953125 C 3.804688 -8.265625 4.171875 -8.507812 4.578125 -8.6875 C 4.984375 -8.875 5.421875 -8.96875 5.890625 -8.96875 Z M 5.890625 -4.25 C 6.128906 -4.25 6.347656 -4.304688 6.546875 -4.421875 C 6.753906 -4.546875 6.914062 -4.707031 7.03125 -4.90625 C 7.15625 -5.113281 7.21875 -5.332031 7.21875 -5.5625 C 7.21875 -5.800781 7.15625 -6.019531 7.03125 -6.21875 C 6.914062 -6.414062 6.753906 -6.570312 6.546875 -6.6875 C 6.347656 -6.800781 6.128906 -6.859375 5.890625 -6.859375 C 5.660156 -6.859375 5.445312 -6.800781 5.25 -6.6875 C 5.050781 -6.570312 4.890625 -6.414062 4.765625 -6.21875 C 4.648438 -6.019531 4.59375 -5.800781 4.59375 -5.5625 C 4.59375 -5.332031 4.648438 -5.113281 4.765625 -4.90625 C 4.890625 -4.707031 5.050781 -4.546875 5.25 -4.421875 C 5.445312 -4.304688 5.660156 -4.25 5.890625 -4.25 Z M 5.890625 -4.25 "/></g></g></g><g fill="#000000" fill-opacity="1"><g transform="translate(67.215977, 27.633393)"><g><path d="M 5.890625 -11.359375 C 6.691406 -11.359375 7.441406 -11.207031 8.140625 -10.90625 C 8.835938 -10.601562 9.453125 -10.1875 9.984375 -9.65625 C 10.515625 -9.125 10.929688 -8.507812 11.234375 -7.8125 C 11.535156 -7.113281 11.6875 -6.363281 11.6875 -5.5625 C 11.6875 -4.78125 11.535156 -4.039062 11.234375 -3.34375 C 10.929688 -2.644531 10.515625 -2.03125 9.984375 -1.5 C 9.453125 -0.976562 8.835938 -0.5625 8.140625 -0.25 C 7.441406 0.0507812 6.691406 0.203125 5.890625 0.203125 C 5.097656 0.203125 4.351562 0.0507812 3.65625 -0.25 C 2.96875 -0.5625 2.359375 -0.976562 1.828125 -1.5 C 1.296875 -2.03125 0.878906 -2.644531 0.578125 -3.34375 C 0.285156 -4.039062 0.140625 -4.78125 0.140625 -5.5625 C 0.140625 -6.363281 0.285156 -7.113281 0.578125 -7.8125 C 0.878906 -8.507812 1.296875 -9.125 1.828125 -9.65625 C 2.359375 -10.1875 2.96875 -10.601562 3.65625 -10.90625 C 4.351562 -11.207031 5.097656 -11.359375 5.890625 -11.359375 Z M 5.890625 -1.90625 C 6.390625 -1.90625 6.863281 -2 7.3125 -2.1875 C 7.757812 -2.375 8.15625 -2.632812 8.5 -2.96875 C 8.84375 -3.3125 9.109375 -3.703125 9.296875 -4.140625 C 9.492188 -4.585938 9.59375 -5.0625 9.59375 -5.5625 C 9.59375 -6.070312 9.492188 -6.550781 9.296875 -7 C 9.109375 -7.445312 8.84375 -7.835938 8.5 -8.171875 C 8.15625 -8.515625 7.757812 -8.78125 7.3125 -8.96875 C 6.863281 -9.15625 6.390625 -9.25 5.890625 -9.25 C 5.390625 -9.25 4.914062 -9.15625 4.46875 -8.96875 C 4.03125 -8.78125 3.644531 -8.515625 3.3125 -8.171875 C 2.976562 -7.835938 2.710938 -7.445312 2.515625 -7 C 2.328125 -6.550781 2.234375 -6.070312 2.234375 -5.5625 C 2.234375 -5.0625 2.328125 -4.585938 2.515625 -4.140625 C 2.710938 -3.703125 2.976562 -3.3125 3.3125 -2.96875 C 3.644531 -2.632812 4.03125 -2.375 4.46875 -2.1875 C 4.914062 -2 5.390625 -1.90625 5.890625 -1.90625 Z M 5.890625 -8.96875 C 6.359375 -8.96875 6.796875 -8.875 7.203125 -8.6875 C 7.617188 -8.507812 7.984375 -8.265625 8.296875 -7.953125 C 8.617188 -7.648438 8.863281 -7.289062 9.03125 -6.875 C 9.207031 -6.46875 9.296875 -6.03125 9.296875 -5.5625 C 9.296875 -5.082031 9.207031 -4.640625 9.03125 -4.234375 C 8.863281 -3.828125 8.617188 -3.46875 8.296875 -3.15625 C 7.984375 -2.84375 7.617188 -2.597656 7.203125 -2.421875 C 6.796875 -2.253906 6.359375 -2.171875 5.890625 -2.171875 C 5.421875 -2.171875 4.984375 -2.253906 4.578125 -2.421875 C 4.171875 -2.597656 3.804688 -2.84375 3.484375 -3.15625 C 3.171875 -3.46875 2.925781 -3.828125 2.75 -4.234375 C 2.582031 -4.640625 2.5 -5.082031 2.5 -5.5625 C 2.5 -6.03125 2.582031 -6.46875 2.75 -6.875 C 2.925781 -7.289062 3.171875 -7.648438 3.484375 -7.953125 C 3.804688 -8.265625 4.171875 -8.507812 4.578125 -8.6875 C 4.984375 -8.875 5.421875 -8.96875 5.890625 -8.96875 Z M 5.890625 -4.25 C 6.128906 -4.25 6.347656 -4.304688 6.546875 -4.421875 C 6.753906 -4.546875 6.914062 -4.707031 7.03125 -4.90625 C 7.15625 -5.113281 7.21875 -5.332031 7.21875 -5.5625 C 7.21875 -5.800781 7.15625 -6.019531 7.03125 -6.21875 C 6.914062 -6.414062 6.753906 -6.570312 6.546875 -6.6875 C 6.347656 -6.800781 6.128906 -6.859375 5.890625 -6.859375 C 5.660156 -6.859375 5.445312 -6.800781 5.25 -6.6875 C 5.050781 -6.570312 4.890625 -6.414062 4.765625 -6.21875 C 4.648438 -6.019531 4.59375 -5.800781 4.59375 -5.5625 C 4.59375 -5.332031 4.648438 -5.113281 4.765625 -4.90625 C 4.890625 -4.707031 5.050781 -4.546875 5.25 -4.421875 C 5.445312 -4.304688 5.660156 -4.25 5.890625 -4.25 Z M 5.890625 -4.25 "/></g></g></g><g fill="#000000" fill-opacity="1"><g transform="translate(79.370214, 27.633393)"><g><path d="M 12.671875 -9.3125 C 12.140625 -9.320312 11.632812 -9.210938 11.15625 -8.984375 C 10.6875 -8.765625 10.273438 -8.457031 9.921875 -8.0625 C 9.578125 -7.664062 9.335938 -7.21875 9.203125 -6.71875 C 9.066406 -7.226562 8.832031 -7.675781 8.5 -8.0625 C 8.175781 -8.457031 7.78125 -8.765625 7.3125 -8.984375 C 6.84375 -9.203125 6.332031 -9.3125 5.78125 -9.3125 C 5.21875 -9.3125 4.707031 -9.195312 4.25 -8.96875 C 3.789062 -8.75 3.398438 -8.441406 3.078125 -8.046875 C 2.753906 -7.660156 2.519531 -7.21875 2.375 -6.71875 C 2.226562 -7.269531 1.960938 -7.753906 1.578125 -8.171875 C 1.191406 -8.585938 0.742188 -8.898438 0.234375 -9.109375 L 0.234375 -11.21875 C 0.640625 -11.132812 1.023438 -11.003906 1.390625 -10.828125 C 1.753906 -10.648438 2.09375 -10.4375 2.40625 -10.1875 C 2.882812 -10.570312 3.414062 -10.863281 4 -11.0625 C 4.59375 -11.257812 5.203125 -11.359375 5.828125 -11.359375 C 6.460938 -11.359375 7.066406 -11.25 7.640625 -11.03125 C 8.222656 -10.820312 8.75 -10.535156 9.21875 -10.171875 C 9.695312 -10.554688 10.234375 -10.847656 10.828125 -11.046875 C 11.421875 -11.253906 12.03125 -11.359375 12.65625 -11.359375 C 13.414062 -11.359375 14.128906 -11.210938 14.796875 -10.921875 C 15.472656 -10.628906 16.0625 -10.222656 16.5625 -9.703125 C 17.070312 -9.191406 17.472656 -8.597656 17.765625 -7.921875 C 18.054688 -7.242188 18.203125 -6.523438 18.203125 -5.765625 L 18.203125 0 L 16.171875 0 L 16.171875 -5.796875 C 16.171875 -6.273438 16.078125 -6.722656 15.890625 -7.140625 C 15.710938 -7.566406 15.460938 -7.941406 15.140625 -8.265625 C 14.828125 -8.585938 14.457031 -8.835938 14.03125 -9.015625 C 13.601562 -9.203125 13.148438 -9.300781 12.671875 -9.3125 Z M 5.78125 -7.0625 C 6.132812 -7.0625 6.429688 -6.9375 6.671875 -6.6875 C 6.921875 -6.4375 7.046875 -6.128906 7.046875 -5.765625 L 7.046875 0 L 9.078125 0 L 9.078125 -5.75 C 9.078125 -6.1875 8.992188 -6.609375 8.828125 -7.015625 C 8.660156 -7.421875 8.425781 -7.78125 8.125 -8.09375 C 7.832031 -8.40625 7.484375 -8.648438 7.078125 -8.828125 C 6.679688 -9.003906 6.25 -9.09375 5.78125 -9.09375 C 5.34375 -9.09375 4.921875 -9.003906 4.515625 -8.828125 C 4.117188 -8.648438 3.765625 -8.40625 3.453125 -8.09375 C 3.148438 -7.789062 2.910156 -7.441406 2.734375 -7.046875 C 2.566406 -6.648438 2.484375 -6.222656 2.484375 -5.765625 L 2.484375 0 L 4.53125 0 L 4.53125 -5.765625 C 4.53125 -6.128906 4.648438 -6.4375 4.890625 -6.6875 C 5.128906 -6.9375 5.425781 -7.0625 5.78125 -7.0625 Z M 9.34375 0 L 11.359375 0 L 11.359375 -5.75 C 11.359375 -5.988281 11.410156 -6.207031 11.515625 -6.40625 C 11.628906 -6.601562 11.785156 -6.757812 11.984375 -6.875 C 12.179688 -7 12.394531 -7.0625 12.625 -7.0625 C 12.976562 -7.0625 13.273438 -6.9375 13.515625 -6.6875 C 13.753906 -6.4375 13.875 -6.128906 13.875 -5.765625 L 13.875 0 L 15.921875 0 L 15.921875 -5.765625 C 15.921875 -6.222656 15.832031 -6.648438 15.65625 -7.046875 C 15.488281 -7.441406 15.253906 -7.789062 14.953125 -8.09375 C 14.660156 -8.40625 14.316406 -8.644531 13.921875 -8.8125 C 13.523438 -8.988281 13.101562 -9.082031 12.65625 -9.09375 C 12.1875 -9.09375 11.75 -9.003906 11.34375 -8.828125 C 10.945312 -8.648438 10.597656 -8.40625 10.296875 -8.09375 C 9.992188 -7.789062 9.757812 -7.4375 9.59375 -7.03125 C 9.425781 -6.632812 9.34375 -6.207031 9.34375 -5.75 Z M 0.234375 0 L 2.265625 0 L 2.265625 -5.765625 C 2.265625 -6.222656 2.179688 -6.648438 2.015625 -7.046875 C 1.847656 -7.441406 1.609375 -7.796875 1.296875 -8.109375 C 0.992188 -8.421875 0.640625 -8.664062 0.234375 -8.84375 Z M 0.234375 0 "/></g></g></g><g fill="#000000" fill-opacity="1"><g transform="translate(98.283273, 27.633393)"><g><path d="M 3.75 -4.1875 C 3.394531 -4.46875 3.039062 -4.742188 2.6875 -5.015625 C 2.34375 -5.285156 1.984375 -5.566406 1.609375 -5.859375 C 1.128906 -6.234375 0.78125 -6.65625 0.5625 -7.125 C 0.34375 -7.59375 0.238281 -8.0625 0.25 -8.53125 C 0.257812 -9.007812 0.378906 -9.445312 0.609375 -9.84375 C 0.835938 -10.25 1.171875 -10.570312 1.609375 -10.8125 C 2.046875 -11.0625 2.582031 -11.1875 3.21875 -11.1875 L 8.75 -11.1875 L 8.75 -9.140625 L 3.21875 -9.140625 C 2.832031 -9.140625 2.546875 -9.039062 2.359375 -8.84375 C 2.171875 -8.65625 2.09375 -8.421875 2.125 -8.140625 C 2.15625 -7.867188 2.304688 -7.613281 2.578125 -7.375 L 6.46875 -3.625 C 6.695312 -3.425781 6.820312 -3.222656 6.84375 -3.015625 C 6.863281 -2.804688 6.800781 -2.628906 6.65625 -2.484375 C 6.507812 -2.347656 6.28125 -2.28125 5.96875 -2.28125 L 0.234375 -2.28125 L 0.234375 -4.1875 Z M 0.234375 -2.046875 L 5.96875 -2.046875 C 6.34375 -2.046875 6.625 -2.132812 6.8125 -2.3125 C 7.007812 -2.5 7.097656 -2.726562 7.078125 -3 C 7.054688 -3.28125 6.90625 -3.554688 6.625 -3.828125 L 2.71875 -7.546875 C 2.5 -7.742188 2.375 -7.945312 2.34375 -8.15625 C 2.320312 -8.363281 2.382812 -8.535156 2.53125 -8.671875 C 2.6875 -8.816406 2.914062 -8.890625 3.21875 -8.890625 L 8.75 -8.890625 L 8.75 -6.96875 L 5.65625 -6.96875 L 7.953125 -4.953125 C 8.347656 -4.597656 8.628906 -4.195312 8.796875 -3.75 C 8.960938 -3.3125 9.019531 -2.867188 8.96875 -2.421875 C 8.914062 -1.984375 8.765625 -1.582031 8.515625 -1.21875 C 8.265625 -0.851562 7.921875 -0.554688 7.484375 -0.328125 C 7.046875 -0.0976562 6.523438 0.015625 5.921875 0.015625 L 0.234375 0.015625 Z M 0.234375 -2.046875 "/></g></g></g></svg>